
<svg version="1.0" xmlns="http://www.w3.org/2000/svg"
 width="512.000000pt" height="512.000000pt" viewBox="0 0 512.000000 512.000000"
 preserveAspectRatio="xMidYMid meet">

<g transform="translate(0.000000,512.000000) scale(0.100000,-0.100000)"
fill="#000000" stroke="none">
<path d="M1353 5101 c-67 -23 -118 -62 -154 -119 -41 -65 -49 -101 -49 -223
l0 -107 -122 -3 c-110 -4 -129 -7 -180 -32 -61 -30 -105 -74 -140 -140 l-23
-42 -3 -662 -3 -663 -67 0 c-81 0 -134 -22 -179 -73 -18 -20 -37 -53 -42 -74
-15 -52 -15 -1154 0 -1206 11 -40 66 -109 103 -130 12 -6 57 -14 101 -17 l80
-5 5 -695 5 -695 23 -42 c35 -66 79 -110 140 -140 l57 -28 300 -3 c324 -3 336
-2 354 49 l10 29 96 0 96 0 10 -29 c5 -15 20 -33 32 -40 16 -9 300 -11 1132
-9 l1110 3 49 24 c61 30 117 87 147 149 18 39 23 69 27 169 l4 121 122 4 c103
3 128 7 170 27 61 30 117 87 148 149 l23 47 3 1106 2 1106 -21 26 c-27 35 -76
37 -107 4 l-22 -23 -2 -1096 c-3 -1090 -3 -1097 -24 -1124 -11 -15 -33 -37
-48 -48 -27 -21 -30 -21 -1558 -24 -1516 -2 -1532 -2 -1573 18 -26 13 -49 34
-63 59 -22 38 -22 45 -22 475 l0 436 915 0 c824 0 919 2 948 16 45 23 76 53
100 99 22 40 22 45 22 635 l0 595 -25 45 c-14 24 -45 58 -68 75 l-44 30 -924
3 -924 2 0 873 c0 830 1 874 19 907 10 19 36 45 57 57 l39 23 1117 0 1117 0 3
-352 c3 -344 4 -354 26 -403 30 -65 92 -128 156 -157 50 -22 60 -23 404 -26
l352 -3 0 -410 0 -410 26 -26 c20 -20 31 -24 57 -19 69 13 67 -3 67 509 l0
462 -493 492 -492 493 -1175 0 c-1102 -1 -1178 -2 -1227 -19z m3117 -914 c0
-4 -125 -7 -277 -5 -319 3 -329 6 -370 88 -22 43 -23 54 -23 320 l0 275 335
-335 c184 -184 335 -339 335 -343z m-1358 -1244 c17 -15 18 -47 18 -584 0
-503 -2 -569 -16 -583 -14 -14 -144 -16 -1284 -16 l-1270 0 -15 24 c-14 20
-15 92 -13 585 3 544 4 563 22 577 17 12 208 14 1280 14 1158 0 1261 -1 1278
-17z"/>
<path d="M840 2720 c-12 -12 -20 -33 -20 -54 0 -51 36 -76 111 -76 l59 0 2
-291 3 -292 27 -20 c30 -23 67 -18 98 13 19 19 20 35 20 305 l0 285 60 0 c51
0 65 4 85 25 32 31 33 74 2 103 -22 21 -32 22 -225 22 -189 0 -203 -1 -222
-20z"/>
<path d="M1572 2717 c-39 -41 -29 -69 68 -202 50 -68 90 -128 90 -135 0 -6
-47 -77 -105 -156 -118 -161 -129 -194 -79 -233 55 -43 84 -23 194 130 92 127
93 128 110 106 9 -12 52 -71 95 -130 46 -64 88 -113 103 -118 31 -12 78 5 92
32 22 39 9 67 -101 217 l-110 152 95 131 c54 74 96 141 96 154 0 39 -37 75
-77 75 -41 0 -53 -11 -147 -142 l-63 -88 -58 82 c-91 127 -112 148 -149 148
-21 0 -40 -8 -54 -23z"/>
<path d="M2380 2720 c-28 -28 -26 -81 3 -108 18 -17 36 -22 80 -22 l57 0 1
-267 c1 -148 4 -279 8 -292 17 -60 87 -76 131 -29 19 21 20 34 20 305 l0 283
60 0 c51 0 65 4 85 25 32 31 33 74 2 103 -22 21 -32 22 -225 22 -189 0 -203
-1 -222 -20z"/>
<path d="M1844 3607 c-35 -31 -38 -82 -5 -109 21 -17 47 -18 337 -18 301 0
315 1 334 20 30 30 27 83 -6 109 -26 20 -38 21 -330 21 l-303 0 -27 -23z"/>
<path d="M2694 3607 c-35 -31 -38 -82 -5 -109 21 -17 47 -18 337 -18 301 0
315 1 334 20 30 30 27 83 -6 109 -26 20 -38 21 -330 21 l-303 0 -27 -23z"/>
<path d="M3544 3607 c-35 -31 -38 -82 -5 -109 21 -17 47 -18 337 -18 301 0
315 1 334 20 30 30 27 83 -6 109 -26 20 -38 21 -330 21 l-303 0 -27 -23z"/>
<path d="M3550 3040 c-27 -27 -26 -81 1 -106 20 -18 43 -19 328 -22 168 -2
316 0 329 3 60 15 81 83 39 123 -23 22 -28 22 -350 22 -314 0 -328 -1 -347
-20z"/>
<path d="M3556 2479 c-34 -27 -36 -77 -3 -107 23 -22 28 -22 346 -22 l322 0
24 25 c14 13 25 36 25 50 0 14 -11 37 -25 50 l-24 25 -319 0 c-308 0 -320 -1
-346 -21z"/>
<path d="M3546 1908 c-21 -30 -20 -71 3 -99 l19 -24 299 -3 c164 -2 313 0 331
3 67 12 94 78 52 123 -21 22 -24 22 -355 22 -334 0 -334 0 -349 -22z"/>
<path d="M1847 1358 c-40 -31 -36 -115 8 -132 9 -3 155 -6 324 -6 l308 0 21
23 c29 31 29 80 0 107 -21 19 -34 20 -333 20 -233 0 -315 -3 -328 -12z"/>
<path d="M2697 1358 c-40 -31 -36 -115 8 -132 9 -3 155 -6 324 -6 l308 0 21
23 c29 31 29 80 0 107 -21 19 -34 20 -333 20 -233 0 -315 -3 -328 -12z"/>
<path d="M3547 1358 c-40 -31 -36 -115 8 -132 9 -3 155 -6 324 -6 l308 0 21
23 c29 31 29 80 0 107 -21 19 -34 20 -333 20 -233 0 -315 -3 -328 -12z"/>
</g>
</svg>
